<?xml version="1.0" encoding="iso-8859-1"?>
<!-- Generator: Adobe Illustrator 18.1.1, SVG Export Plug-In . SVG Version: 6.00 Build 0)  -->
<svg version="1.1" id="Capa_1" xmlns="http://www.w3.org/2000/svg" xmlns:xlink="http://www.w3.org/1999/xlink" x="0px" y="0px"
	 viewBox="0 0 348.948 348.948" style="enable-background:new 0 0 348.948 348.948;" xml:space="preserve">
<g>
	<g>
		<path style="fill:#010002;" d="M107.971,222.839c-28.187,0-51.118,22.937-51.118,51.118s22.937,51.118,51.118,51.118
			c28.193,0,51.124-22.937,51.124-51.118S136.158,222.839,107.971,222.839z M107.965,313.147c-21.606,0-39.184-17.578-39.184-39.184
			s17.578-39.184,39.184-39.184c21.612,0,39.19,17.578,39.19,39.184S129.577,313.147,107.965,313.147z"/>
		<path style="fill:#010002;" d="M240.972,198.977c-8.258,0-16.29,1.331-23.993,3.968l-20.013-32.203l94.378-151.845L260.925,0
			l-85.04,136.826L90.84,0L60.426,18.897l94.372,151.845l-20.532,33.039c-8.389-3.156-17.316-4.803-26.302-4.803
			c-41.35,0-74.986,33.641-74.986,74.986s33.641,74.986,74.986,74.986c28.868,0,53.976-16.391,66.507-40.36
			c12.536,23.969,37.645,40.36,66.507,40.36c41.356,0,74.992-33.641,74.992-74.986S282.328,198.977,240.972,198.977z
			 M174.459,239.337c-2.87-5.49-6.426-10.633-10.615-15.305l12.047-19.38l10.913,17.561
			C181.852,227.362,177.711,233.126,174.459,239.337z M240.978,337.015c-34.769,0-63.052-28.283-63.052-63.052
			c0-20.138,9.523-38.051,24.261-49.603l-26.296-42.311l-27.233,43.815c13.664,11.576,22.376,28.826,22.376,48.099
			c0,34.769-28.289,63.052-63.058,63.052s-63.052-28.283-63.052-63.052s28.283-63.052,63.052-63.052
			c11.218,0,21.731,2.977,30.867,8.127l30.019-48.296L76.865,22.734l10.138-6.301l88.882,142.996l88.883-142.996l10.138,6.301
			l-91.991,148.008l29.315,47.168c8.628-4.445,18.384-6.999,28.742-6.999c34.769,0,63.058,28.283,63.058,63.052
			S275.747,337.015,240.978,337.015z"/>
		<path style="fill:#010002;" d="M240.978,222.839c-28.187,0-51.118,22.937-51.118,51.118s22.937,51.118,51.118,51.118
			c28.193,0,51.124-22.937,51.124-51.118S269.165,222.839,240.978,222.839z M240.972,313.147c-21.606,0-39.184-17.578-39.184-39.184
			s17.578-39.184,39.184-39.184c21.612,0,39.19,17.578,39.19,39.184S262.584,313.147,240.972,313.147z"/>
	</g>
</g>
<g>
</g>
<g>
</g>
<g>
</g>
<g>
</g>
<g>
</g>
<g>
</g>
<g>
</g>
<g>
</g>
<g>
</g>
<g>
</g>
<g>
</g>
<g>
</g>
<g>
</g>
<g>
</g>
<g>
</g>
</svg>
