<?xml version="1.0" encoding="iso-8859-1"?>
<!-- Generator: Adobe Illustrator 19.0.0, SVG Export Plug-In . SVG Version: 6.00 Build 0)  -->
<svg version="1.1" id="Capa_1" xmlns="http://www.w3.org/2000/svg" xmlns:xlink="http://www.w3.org/1999/xlink" x="0px" y="0px"
	 viewBox="0 0 463 463" style="enable-background:new 0 0 463 463;" xml:space="preserve">
<g>
	<path d="M414.208,452.146L400.42,424.57c-2.642-5.286-7.954-8.57-13.864-8.57H383V311.5c0-0.169-0.02-0.333-0.025-0.5h8.525
		c8.547,0,15.5-6.953,15.5-15.5v-80c0-8.547-6.953-15.5-15.5-15.5H367V87h0.5c8.547,0,15.5-6.953,15.5-15.5v-56
		C383,6.953,376.047,0,367.5,0h-272C86.953,0,80,6.953,80,15.5v56C80,80.047,86.953,87,95.5,87H96v209h-0.5
		c-8.547,0-15.5,6.953-15.5,15.5V416h-3.556c-5.91,0-11.223,3.284-13.863,8.568l-13.789,27.578
		c-1.163,2.325-1.038,5.086,0.328,7.297C50.486,461.654,52.9,463,55.5,463h352c2.6,0,5.014-1.346,6.38-3.557
		C415.246,457.232,415.371,454.471,414.208,452.146z M392,215.5v80c0,0.276-0.225,0.5-0.5,0.5h-24h-24c-0.275,0-0.5-0.224-0.5-0.5
		v-80c0-0.276,0.225-0.5,0.5-0.5h48C391.775,215,392,215.224,392,215.5z M95,71.5v-56c0-0.276,0.225-0.5,0.5-0.5h272
		c0.275,0,0.5,0.224,0.5,0.5v56c0,0.276-0.225,0.5-0.5,0.5h-272C95.225,72,95,71.776,95,71.5z M211.715,140.157
		C215.897,146.671,223.2,151,231.5,151c8.3,0,15.603-4.329,19.785-10.843c10.442,5.856,17.788,16.092,20.008,27.843h-79.586
		C193.927,156.248,201.272,146.013,211.715,140.157z M223,127.5c0-4.687,3.813-8.5,8.5-8.5s8.5,3.813,8.5,8.5s-3.813,8.5-8.5,8.5
		S223,132.187,223,127.5z M240,105.597c-2.638-1.027-5.503-1.597-8.5-1.597s-5.862,0.57-8.5,1.597V87h17V105.597z M111,87h97v38.218
		c-17.076,7.987-28.938,24.183-31.48,42.782h-9.02c-4.143,0-7.5,3.358-7.5,7.5s3.357,7.5,7.5,7.5h128c4.143,0,7.5-3.358,7.5-7.5
		s-3.357-7.5-7.5-7.5h-9.02c-2.542-18.597-14.404-34.795-31.48-42.782V87h97v113h-8.5c-8.547,0-15.5,6.953-15.5,15.5v80
		c0,0.169,0.02,0.333,0.025,0.5H255v-38.218c17.076-7.987,28.938-24.183,31.48-42.782h9.02c4.143,0,7.5-3.358,7.5-7.5
		s-3.357-7.5-7.5-7.5h-128c-4.143,0-7.5,3.358-7.5,7.5s3.357,7.5,7.5,7.5h9.02c2.542,18.597,14.404,34.795,31.48,42.782V296h-97V87z
		 M223,296v-18.597c2.638,1.027,5.503,1.597,8.5,1.597s5.862-0.57,8.5-1.597V296H223z M251.285,242.843
		C247.103,236.329,239.8,232,231.5,232c-8.3,0-15.603,4.329-19.785,10.843c-10.442-5.856-17.788-16.092-20.008-27.843h79.586
		C269.073,226.752,261.728,236.987,251.285,242.843z M240,255.5c0,4.687-3.813,8.5-8.5,8.5s-8.5-3.813-8.5-8.5s3.813-8.5,8.5-8.5
		S240,250.813,240,255.5z M95.5,311h272c0.275,0,0.5,0.224,0.5,0.5V392H95v-80.5C95,311.224,95.225,311,95.5,311z M95,407h273v9H95
		V407z M67.636,448l8.362-16.725c0.085-0.169,0.256-0.275,0.446-0.275h310.111c0.19,0,0.361,0.105,0.447,0.276L395.364,448H67.636z"
		/>
	<path d="M119.5,367c4.143,0,7.5-3.358,7.5-7.5v-24c0-4.142-3.357-7.5-7.5-7.5s-7.5,3.358-7.5,7.5v24
		C112,363.642,115.357,367,119.5,367z"/>
	<path d="M151.5,367c4.143,0,7.5-3.358,7.5-7.5v-24c0-4.142-3.357-7.5-7.5-7.5s-7.5,3.358-7.5,7.5v24
		C144,363.642,147.357,367,151.5,367z"/>
	<path d="M183.5,367c4.143,0,7.5-3.358,7.5-7.5v-24c0-4.142-3.357-7.5-7.5-7.5s-7.5,3.358-7.5,7.5v24
		C176,363.642,179.357,367,183.5,367z"/>
	<path d="M215.5,367c4.143,0,7.5-3.358,7.5-7.5v-24c0-4.142-3.357-7.5-7.5-7.5s-7.5,3.358-7.5,7.5v24
		C208,363.642,211.357,367,215.5,367z"/>
	<path d="M247.5,367c4.143,0,7.5-3.358,7.5-7.5v-24c0-4.142-3.357-7.5-7.5-7.5s-7.5,3.358-7.5,7.5v24
		C240,363.642,243.357,367,247.5,367z"/>
	<path d="M279.5,367c4.143,0,7.5-3.358,7.5-7.5v-24c0-4.142-3.357-7.5-7.5-7.5s-7.5,3.358-7.5,7.5v24
		C272,363.642,275.357,367,279.5,367z"/>
	<path d="M311.5,367c4.143,0,7.5-3.358,7.5-7.5v-24c0-4.142-3.357-7.5-7.5-7.5s-7.5,3.358-7.5,7.5v24
		C304,363.642,307.357,367,311.5,367z"/>
	<path d="M343.5,367c4.143,0,7.5-3.358,7.5-7.5v-24c0-4.142-3.357-7.5-7.5-7.5s-7.5,3.358-7.5,7.5v24
		C336,363.642,339.357,367,343.5,367z"/>
	<path d="M352,239.5c0,4.142,3.357,7.5,7.5,7.5h16c4.143,0,7.5-3.358,7.5-7.5s-3.357-7.5-7.5-7.5h-16
		C355.357,232,352,235.358,352,239.5z"/>
	<path d="M375.5,264h-16c-4.143,0-7.5,3.358-7.5,7.5s3.357,7.5,7.5,7.5h16c4.143,0,7.5-3.358,7.5-7.5S379.643,264,375.5,264z"/>
	<path d="M175.5,47h112c4.143,0,7.5-3.358,7.5-7.5s-3.357-7.5-7.5-7.5h-112c-4.143,0-7.5,3.358-7.5,7.5S171.357,47,175.5,47z"/>
</g>
<g>
</g>
<g>
</g>
<g>
</g>
<g>
</g>
<g>
</g>
<g>
</g>
<g>
</g>
<g>
</g>
<g>
</g>
<g>
</g>
<g>
</g>
<g>
</g>
<g>
</g>
<g>
</g>
<g>
</g>
</svg>
